<?xml version="1.0" encoding="UTF-8" standalone="no"?>
<svg width="284px" height="51px" viewBox="0 0 284 51" version="1.1" xmlns="http://www.w3.org/2000/svg" xmlns:xlink="http://www.w3.org/1999/xlink">
    <g id="Page-1" stroke="none" stroke-width="1" fill="none" fill-rule="evenodd">
        <g id="logo-semper-phi">
            <g id="Group" transform="translate(30.000000, 0.000000)"></g>
            <path d="M72.0282245,49.4177974 C69.978146,49.4177974 68.7552921,47.7453649 68.7552921,45.8031852 C68.7552921,43.8250393 69.9601628,42.2605056 72.0641908,42.2605056 C73.9883873,42.2605056 75.3011569,43.9689044 75.3011569,45.7852021 C75.3011569,47.6914155 74.0603199,49.4177974 72.0282245,49.4177974 L72.0282245,49.4177974 Z M68,49.9932581 L68.8092415,49.9932581 L68.8092415,48.500657 L68.8452078,48.500657 C69.4566348,49.5616626 70.7873875,50.1730895 72.0102414,50.1730895 C74.5278817,50.1730895 76.1103985,48.2129267 76.1103985,45.7852021 C76.1103985,43.3574775 74.5278817,41.5052136 72.0462077,41.5052136 C70.7694044,41.5052136 69.5465505,42.0806742 68.8452078,43.1236966 L68.8092415,43.1236966 L68.8092415,35.1571633 L68,35.1571633 L68,49.9932581 Z M81.5772746,41.5052136 C79.1675331,41.5052136 77.2613197,43.4653764 77.2613197,45.8571347 C77.2613197,48.2129267 79.1855163,50.1730895 81.5772746,50.1730895 C84.0229823,50.1730895 85.9471788,48.3028424 85.9471788,45.8391515 C85.9471788,43.3754606 84.0229823,41.5052136 81.5772746,41.5052136 L81.5772746,41.5052136 Z M81.5233251,42.2605056 C83.5734037,42.2605056 85.1379373,43.8070561 85.1379373,45.8571347 C85.1379373,47.8712469 83.5554205,49.4177974 81.5233251,49.4177974 C79.5631623,49.4177974 78.0705613,47.7453649 78.0705613,45.8571347 C78.0705613,43.9329381 79.5451792,42.2605056 81.5233251,42.2605056 L81.5233251,42.2605056 Z M92.9426223,41.685045 L92.9426223,46.3786459 C92.9426223,47.9791458 92.7627909,49.4177974 90.7666617,49.4177974 C88.7705326,49.4177974 88.5907012,47.9791458 88.5907012,46.3786459 L88.5907012,41.685045 L87.7814596,41.685045 L87.7814596,46.6663762 C87.7814596,47.511584 87.7634765,48.3567918 88.2849877,49.0581345 C88.8604484,49.8134266 89.8315382,50.1730895 90.7666617,50.1730895 C91.7017853,50.1730895 92.6728751,49.8134266 93.2483358,49.0581345 C93.769847,48.3567918 93.7518638,47.511584 93.7518638,46.6663762 L93.7518638,41.685045 L92.9426223,41.685045 Z M95.9278244,41.685045 L95.1005997,41.685045 L98.8410939,50.4428367 L101.754363,43.2675618 L104.685616,50.4428367 L108.444093,41.685045 L107.616869,41.685045 L104.739566,48.500657 L101.79033,41.2354664 L98.8590771,48.500657 L95.9278244,41.685045 Z M108.534009,43.8430224 L108.534009,44.6522639 L111.950807,44.6522639 L111.950807,43.8430224 L108.534009,43.8430224 Z M119.809441,42.4403371 L121.266076,42.4403371 L121.266076,41.685045 L119.809441,41.685045 L119.809441,38.7178261 L119.0002,38.7178261 L119.0002,41.685045 L118.083059,41.685045 L118.083059,42.4403371 L119.0002,42.4403371 L119.0002,49.9932581 L119.809441,49.9932581 L119.809441,42.4403371 Z M129.880002,45.9110841 C129.897986,43.5193258 128.405385,41.5052136 125.887744,41.5052136 C123.46002,41.5052136 121.85952,43.5013427 121.85952,45.8211684 C121.85952,48.1769604 123.424053,50.1730895 125.887744,50.1730895 C127.52421,50.1730895 128.854963,49.363848 129.610255,47.9251964 L128.926896,47.5295672 C128.333452,48.6445222 127.29043,49.4177974 125.995643,49.4177974 C124.071447,49.4177974 122.614812,48.0151121 122.668761,45.9110841 L129.880002,45.9110841 Z M122.668761,45.155792 C122.812626,43.5912584 124.215312,42.2605056 125.905727,42.2605056 C127.614126,42.2605056 128.872946,43.6272247 129.070761,45.155792 L122.668761,45.155792 Z M132.649407,35.1571633 L131.840165,35.1571633 L131.840165,49.9932581 L132.649407,49.9932581 L132.649407,46.3067133 L133.098985,45.8391515 L137.217126,49.9932581 L138.278131,49.9932581 L133.620497,45.281674 L137.109227,41.685045 L136.066204,41.685045 L132.649407,45.2097414 L132.649407,35.1571633 Z M146.730209,45.9110841 C146.748193,43.5193258 145.255591,41.5052136 142.737951,41.5052136 C140.310227,41.5052136 138.709727,43.5013427 138.709727,45.8211684 C138.709727,48.1769604 140.27426,50.1730895 142.737951,50.1730895 C144.374417,50.1730895 145.70517,49.363848 146.460462,47.9251964 L145.777103,47.5295672 C145.183659,48.6445222 144.140636,49.4177974 142.84585,49.4177974 C140.921654,49.4177974 139.465019,48.0151121 139.518968,45.9110841 L146.730209,45.9110841 Z M139.518968,45.155792 C139.662833,43.5912584 141.065519,42.2605056 142.755934,42.2605056 C144.464333,42.2605056 145.723153,43.6272247 145.920968,45.155792 L139.518968,45.155792 Z M149.499614,41.685045 L148.690372,41.685045 L148.690372,49.9932581 L149.499614,49.9932581 L149.499614,45.893101 C149.499614,44.2026853 149.841294,42.2605056 151.927338,42.2605056 C153.743636,42.2605056 153.923467,43.4833595 153.923467,44.9759606 L153.923467,49.9932581 L154.732709,49.9932581 L154.732709,44.9759606 C154.732709,42.8359663 154.139265,41.5052136 151.999271,41.5052136 C150.920282,41.5052136 150.021125,42.062691 149.53558,42.9798315 L149.499614,42.9798315 L149.499614,41.685045 Z M170.28813,45.9110841 C170.306113,43.5193258 168.813512,41.5052136 166.295871,41.5052136 C163.868147,41.5052136 162.267647,43.5013427 162.267647,45.8211684 C162.267647,48.1769604 163.83218,50.1730895 166.295871,50.1730895 C167.932338,50.1730895 169.26309,49.363848 170.018382,47.9251964 L169.335023,47.5295672 C168.741579,48.6445222 167.698557,49.4177974 166.40377,49.4177974 C164.479574,49.4177974 163.022939,48.0151121 163.076888,45.9110841 L170.28813,45.9110841 Z M163.076888,45.155792 C163.220753,43.5912584 164.623439,42.2605056 166.313854,42.2605056 C168.022253,42.2605056 169.281073,43.6272247 169.478888,45.155792 L163.076888,45.155792 Z M173.057534,41.685045 L172.248292,41.685045 L172.248292,49.9932581 L173.057534,49.9932581 L173.057534,45.893101 C173.057534,44.2026853 173.399214,42.2605056 175.485258,42.2605056 C177.301556,42.2605056 177.481388,43.4833595 177.481388,44.9759606 L177.481388,49.9932581 L178.290629,49.9932581 L178.290629,44.9759606 C178.290629,42.8359663 177.697185,41.5052136 175.557191,41.5052136 C174.478202,41.5052136 173.579045,42.062691 173.0935,42.9798315 L173.057534,42.9798315 L173.057534,41.685045 Z M189.853791,42.2605056 C191.867904,42.2605056 193.180673,43.7710898 193.180673,45.6952864 C193.180673,47.6914155 192.029752,49.4177974 189.907741,49.4177974 C187.893629,49.4177974 186.634808,47.6914155 186.634808,45.7852021 C186.634808,43.9868876 187.947578,42.2605056 189.853791,42.2605056 L189.853791,42.2605056 Z M193.935965,41.685045 L193.126724,41.685045 L193.126724,43.1236966 L193.090758,43.1236966 C192.389415,42.0806742 191.166561,41.5052136 189.889758,41.5052136 C187.390101,41.5052136 185.825567,43.3574775 185.825567,45.7852021 C185.825567,48.2129267 187.408084,50.1730895 189.925724,50.1730895 C191.148578,50.1730895 192.479331,49.5616626 193.090758,48.500657 L193.126724,48.500657 L193.126724,49.9932581 L193.935965,49.9932581 L193.935965,41.685045 Z M199.978302,49.4177974 C197.96419,49.4177974 196.70537,47.6914155 196.70537,45.7852021 C196.70537,43.9868876 198.018139,42.2605056 199.924353,42.2605056 C201.938465,42.2605056 203.251235,43.7710898 203.251235,45.6952864 C203.251235,47.6914155 202.100313,49.4177974 199.978302,49.4177974 L199.978302,49.4177974 Z M203.197285,49.9932581 L204.006527,49.9932581 L204.006527,35.1571633 L203.197285,35.1571633 L203.197285,43.1236966 L203.161319,43.1236966 C202.459976,42.0806742 201.237122,41.5052136 199.960319,41.5052136 C197.460662,41.5052136 195.896128,43.3574775 195.896128,45.7852021 C195.896128,48.2129267 197.478645,50.1730895 199.996285,50.1730895 C201.219139,50.1730895 202.549892,49.5616626 203.161319,48.500657 L203.197285,48.500657 L203.197285,49.9932581 Z M206.308369,41.685045 L205.481145,41.685045 L209.293571,50.4428367 L213.088015,41.685045 L212.26079,41.685045 L209.311554,48.5366233 L206.308369,41.685045 Z M215.677588,41.685045 L214.868346,41.685045 L214.868346,49.9932581 L215.677588,49.9932581 L215.677588,41.685045 Z M215.281959,38.1783317 C214.868346,38.1783317 214.54465,38.5200115 214.54465,38.9156407 C214.54465,39.329253 214.868346,39.6529496 215.281959,39.6529496 C215.695571,39.6529496 216.019268,39.329253 216.019268,38.9156407 C216.019268,38.5200115 215.695571,38.1783317 215.281959,38.1783317 L215.281959,38.1783317 Z M225.98193,45.9110841 C225.999913,43.5193258 224.507312,41.5052136 221.989672,41.5052136 C219.561947,41.5052136 217.961447,43.5013427 217.961447,45.8211684 C217.961447,48.1769604 219.525981,50.1730895 221.989672,50.1730895 C223.626138,50.1730895 224.956891,49.363848 225.712183,47.9251964 L225.028823,47.5295672 C224.43538,48.6445222 223.392357,49.4177974 222.097571,49.4177974 C220.173374,49.4177974 218.716739,48.0151121 218.770689,45.9110841 L225.98193,45.9110841 Z M218.770689,45.155792 C218.914554,43.5912584 220.317239,42.2605056 222.007655,42.2605056 C223.716054,42.2605056 224.974874,43.6272247 225.172688,45.155792 L218.770689,45.155792 Z M232.132166,42.8359663 C231.772503,42.062691 230.855362,41.5052136 230.010155,41.5052136 C228.805284,41.5052136 227.744278,42.3504214 227.744278,43.6092415 C227.744278,45.0119269 229.039065,45.4974718 230.172003,45.9110841 C230.999227,46.1988144 231.790486,46.522511 231.790486,47.5475503 C231.790486,48.5905727 230.963261,49.4177974 229.920239,49.4177974 C228.823267,49.4177974 228.157891,48.7164547 227.852177,47.7273818 L227.060919,47.9791458 C227.402598,49.3278817 228.535537,50.1730895 229.920239,50.1730895 C231.41284,50.1730895 232.599727,49.1120839 232.599727,47.5835166 C232.599727,44.5803314 228.55352,45.5514212 228.55352,43.5552921 C228.55352,42.8359663 229.272846,42.2605056 229.974188,42.2605056 C230.621581,42.2605056 231.161076,42.6201685 231.430823,43.1956292 L232.132166,42.8359663 Z M238.713997,49.4177974 C236.663918,49.4177974 235.441064,47.7453649 235.441064,45.8031852 C235.441064,43.8250393 236.645935,42.2605056 238.749963,42.2605056 C240.67416,42.2605056 241.986929,43.9689044 241.986929,45.7852021 C241.986929,47.6914155 240.746092,49.4177974 238.713997,49.4177974 L238.713997,49.4177974 Z M234.685772,49.9932581 L235.495014,49.9932581 L235.495014,48.500657 L235.53098,48.500657 C236.142407,49.5616626 237.47316,50.1730895 238.696014,50.1730895 C241.213654,50.1730895 242.796171,48.2129267 242.796171,45.7852021 C242.796171,43.3574775 241.213654,41.5052136 238.73198,41.5052136 C237.455177,41.5052136 236.232323,42.0806742 235.53098,43.1236966 L235.495014,43.1236966 L235.495014,35.1571633 L234.685772,35.1571633 L234.685772,49.9932581 Z M249.791614,41.685045 L249.791614,46.3786459 C249.791614,47.9791458 249.611783,49.4177974 247.615654,49.4177974 C245.619524,49.4177974 245.439693,47.9791458 245.439693,46.3786459 L245.439693,41.685045 L244.630452,41.685045 L244.630452,46.6663762 C244.630452,47.511584 244.612468,48.3567918 245.13398,49.0581345 C245.70944,49.8134266 246.68053,50.1730895 247.615654,50.1730895 C248.550777,50.1730895 249.521867,49.8134266 250.097328,49.0581345 C250.618839,48.3567918 250.600856,47.511584 250.600856,46.6663762 L250.600856,41.685045 L249.791614,41.685045 Z M254.05362,41.685045 L253.244378,41.685045 L253.244378,49.9932581 L254.05362,49.9932581 L254.05362,45.7492358 C254.05362,44.5263819 253.945721,42.2605056 255.762018,42.2605056 C255.977816,42.2605056 256.139664,42.3144551 256.337479,42.422354 L256.769074,41.7030281 C256.481344,41.5771461 256.211597,41.5052136 255.8879,41.5052136 C255.006726,41.5052136 254.413282,42.0087416 254.089586,42.7640337 L254.05362,42.7640337 L254.05362,41.685045 Z M265.454934,45.9110841 C265.472917,43.5193258 263.980316,41.5052136 261.462675,41.5052136 C259.034951,41.5052136 257.434451,43.5013427 257.434451,45.8211684 C257.434451,48.1769604 258.998984,50.1730895 261.462675,50.1730895 C263.099142,50.1730895 264.429894,49.363848 265.185186,47.9251964 L264.501827,47.5295672 C263.908383,48.6445222 262.865361,49.4177974 261.570574,49.4177974 C259.646378,49.4177974 258.189743,48.0151121 258.243692,45.9110841 L265.454934,45.9110841 Z M258.243692,45.155792 C258.387558,43.5912584 259.790243,42.2605056 261.480659,42.2605056 C263.189057,42.2605056 264.447877,43.6272247 264.645692,45.155792 L258.243692,45.155792 Z M270.634079,42.2605056 C272.648192,42.2605056 273.960961,43.7710898 273.960961,45.6952864 C273.960961,47.6914155 272.81004,49.4177974 270.688029,49.4177974 C268.673917,49.4177974 267.415096,47.6914155 267.415096,45.7852021 C267.415096,43.9868876 268.727866,42.2605056 270.634079,42.2605056 L270.634079,42.2605056 Z M274.716253,41.685045 L273.907012,41.685045 L273.907012,43.1236966 L273.871045,43.1236966 C273.169703,42.0806742 271.946849,41.5052136 270.670046,41.5052136 C268.170388,41.5052136 266.605855,43.3574775 266.605855,45.7852021 C266.605855,48.2129267 268.188372,50.1730895 270.706012,50.1730895 C271.928866,50.1730895 273.259619,49.5616626 273.871045,48.500657 L273.907012,48.500657 L273.907012,49.9932581 L274.716253,49.9932581 L274.716253,41.685045 Z M282.520938,41.685045 L282.520938,46.3786459 C282.520938,47.9791458 282.341107,49.4177974 280.344978,49.4177974 C278.348849,49.4177974 278.169017,47.9791458 278.169017,46.3786459 L278.169017,41.685045 L277.359776,41.685045 L277.359776,46.6663762 C277.359776,47.511584 277.341793,48.3567918 277.863304,49.0581345 C278.438764,49.8134266 279.409854,50.1730895 280.344978,50.1730895 C281.280101,50.1730895 282.251191,49.8134266 282.826652,49.0581345 C283.348163,48.3567918 283.33018,47.511584 283.33018,46.6663762 L283.33018,41.685045 L282.520938,41.685045 Z" id="bouw--teken-en-advie" fill="#66A1C3"></path>
            <path d="M77.7161962,26.1824794 C84.5563214,26.1824794 87.862382,22.6864153 87.862382,18.0503305 C87.862382,8.58815723 73.3081155,11.2862066 73.3081155,7.25813288 C73.3081155,5.73810506 74.6001391,4.71208627 76.9181816,4.71208627 C79.5022289,4.71208627 82.238279,5.58610227 84.2903166,7.48613706 L87.2923715,3.5340647 C84.7843256,1.21602226 81.4402644,0 77.4121906,0 C71.4460814,0 67.7980146,3.49606401 67.7980146,7.71414123 C67.7980146,17.2523159 82.3902818,14.1742595 82.3902818,18.6583416 C82.3902818,20.102368 80.9462553,21.4703931 77.9822011,21.4703931 C74.4861371,21.4703931 71.7120863,19.9123646 69.9260536,18.0503305 L67,22.1544056 C69.3560431,24.5484494 72.8521071,26.1824794 77.7161962,26.1824794 L77.7161962,26.1824794 Z M109.446777,25.726471 L109.446777,20.976384 L96.9065475,20.976384 L96.9065475,15.238279 L109.180772,15.238279 L109.180772,10.488192 L96.9065475,10.488192 L96.9065475,5.13009392 L109.446777,5.13009392 L109.446777,0.380006957 L91.5104487,0.380006957 L91.5104487,25.726471 L109.446777,25.726471 Z M141.139357,25.726471 L141.139357,0.380006957 L133.539218,0.380006957 L127.383106,15.6942873 L121.226993,0.380006957 L113.664854,0.380006957 L113.664854,25.726471 L119.060953,25.726471 L119.060953,7.9801461 L126.205084,25.726471 L128.561127,25.726471 L135.705258,7.9801461 L135.705258,25.726471 L141.139357,25.726471 Z M151.551548,25.726471 L151.551548,16.7203061 L158.011666,16.7203061 C163.483766,16.7203061 166.523822,12.9582372 166.523822,8.55015654 C166.523822,4.10407514 163.521767,0.380006957 158.011666,0.380006957 L146.155449,0.380006957 L146.155449,25.726471 L151.551548,25.726471 Z M157.289653,11.9702192 L151.551548,11.9702192 L151.551548,5.13009392 L157.289653,5.13009392 C159.417692,5.13009392 161.013721,6.42211758 161.013721,8.55015654 C161.013721,10.6401948 159.417692,11.9702192 157.289653,11.9702192 L157.289653,11.9702192 Z M187.804212,25.726471 L187.804212,20.976384 L175.263982,20.976384 L175.263982,15.238279 L187.538207,15.238279 L187.538207,10.488192 L175.263982,10.488192 L175.263982,5.13009392 L187.804212,5.13009392 L187.804212,0.380006957 L169.867883,0.380006957 L169.867883,25.726471 L187.804212,25.726471 Z M212.542665,25.726471 L206.84256,16.0742943 C209.57861,15.4282825 212.390662,13.0342386 212.390662,8.55015654 C212.390662,3.83807027 209.160603,0.380006957 203.878506,0.380006957 L192.022289,0.380006957 L192.022289,25.726471 L197.418388,25.726471 L197.418388,16.7203061 L201.37046,16.7203061 L206.348551,25.726471 L212.542665,25.726471 Z M203.080491,11.9702192 L197.418388,11.9702192 L197.418388,5.13009392 L203.080491,5.13009392 C205.246531,5.13009392 206.880561,6.42211758 206.880561,8.55015654 C206.880561,10.6781955 205.246531,11.9702192 203.080491,11.9702192 L203.080491,11.9702192 Z M231.581013,25.726471 L231.581013,16.7203061 L238.041131,16.7203061 C243.513232,16.7203061 246.553287,12.9582372 246.553287,8.55015654 C246.553287,4.10407514 243.551232,0.380006957 238.041131,0.380006957 L226.184914,0.380006957 L226.184914,25.726471 L231.581013,25.726471 Z M237.319118,11.9702192 L231.581013,11.9702192 L231.581013,5.13009392 L237.319118,5.13009392 C239.447157,5.13009392 241.043186,6.42211758 241.043186,8.55015654 C241.043186,10.6401948 239.447157,11.9702192 237.319118,11.9702192 L237.319118,11.9702192 Z M272.697766,25.726471 L272.697766,0.380006957 L267.263666,0.380006957 L267.263666,10.3361892 L255.293447,10.3361892 L255.293447,0.380006957 L249.897349,0.380006957 L249.897349,25.726471 L255.293447,25.726471 L255.293447,15.0862762 L267.263666,15.0862762 L267.263666,25.726471 L272.697766,25.726471 Z M283.071956,25.726471 L283.071956,0.380006957 L277.675857,0.380006957 L277.675857,25.726471 L283.071956,25.726471 Z" id="SEMPER-PHI" fill="#66A1C3"></path>
            <polygon id="Fill-1" fill="#66A1C3" points="30 0 60 50 60 0"></polygon>
            <path d="M30,50 L30,0 C30,0 0,2.43111349 0,50 L30,50 Z" id="Fill-2" fill="#66A1C3"></path>
        </g>
    </g>
</svg>